<svg width="16" height="16" viewBox="0 0 16 16" fill="none" xmlns="http://www.w3.org/2000/svg">
<path fill-rule="evenodd" clip-rule="evenodd" d="M5.24395 6.06582L8.70928 6.77049C8.97195 6.82315 9.17662 7.02782 9.22995 7.29049L9.93395 10.7558L12.2793 3.72049L5.24395 6.06582ZM9.77795 13.9998C9.76395 13.9998 9.75062 13.9992 9.73728 13.9985C9.43595 13.9805 9.18462 13.7618 9.12395 13.4665L8.01128 7.98849L2.53395 6.87515C2.23795 6.81515 2.01928 6.56382 2.00128 6.26249C1.98262 5.96115 2.16928 5.68515 2.45528 5.58982L13.1219 2.03449C13.3619 1.95315 13.6259 2.01649 13.8046 2.19515C13.9833 2.37382 14.0453 2.63782 13.9659 2.87782L10.4099 13.5445C10.3186 13.8178 10.0633 13.9998 9.77795 13.9998Z" fill="#474747"/>
</svg>
